<svg width="9" height="7" viewBox="0 0 9 7" fill="none" xmlns="http://www.w3.org/2000/svg">
<path d="M1.95652 3.48416C2.43478 3.52639 2.82609 3.70588 3.13043 4.02262C3.43478 4.33937 3.58696 4.74057 3.58696 5.22624C3.58696 5.75415 3.42391 6.18703 3.09783 6.52489C2.77174 6.84163 2.3587 7 1.8587 7C1.29348 7 0.836956 6.7994 0.48913 6.39819C0.163043 5.99698 0 5.37406 0 4.52941C0 2.90347 0.554348 1.49925 1.66304 0.316742C1.88043 0.105581 2.13043 0 2.41304 0C2.65217 0 2.8587 0.0844647 3.03261 0.253394C3.20652 0.401206 3.29348 0.580693 3.29348 0.791854C3.29348 1.02413 3.20652 1.22474 3.03261 1.39367C2.46739 1.9638 2.1087 2.66063 1.95652 3.48416ZM7.36957 3.48416C7.84783 3.52639 8.23913 3.70588 8.54348 4.02262C8.84783 4.33937 9 4.74057 9 5.22624C9 5.75415 8.83696 6.18703 8.51087 6.52489C8.18478 6.84163 7.77174 7 7.27174 7C6.70652 7 6.25 6.7994 5.90217 6.39819C5.57609 5.99698 5.41304 5.37406 5.41304 4.52941C5.41304 2.90347 5.96739 1.49925 7.07609 0.316742C7.29348 0.105581 7.54348 0 7.82609 0C8.06522 0 8.27174 0.0844647 8.44565 0.253394C8.61957 0.401206 8.70652 0.580693 8.70652 0.791854C8.70652 1.02413 8.61957 1.22474 8.44565 1.39367C7.88044 1.9638 7.52174 2.66063 7.36957 3.48416Z" fill="white"/>
</svg>
